<?xml version="1.0" encoding="utf-8"?>
<!-- Generator: Adobe Illustrator 16.0.0, SVG Export Plug-In . SVG Version: 6.00 Build 0)  -->
<!DOCTYPE svg PUBLIC "-//W3C//DTD SVG 1.1//EN" "http://www.w3.org/Graphics/SVG/1.1/DTD/svg11.dtd">
<svg version="1.1" id="Layer_1" xmlns="http://www.w3.org/2000/svg" xmlns:xlink="http://www.w3.org/1999/xlink" x="0px" y="0px"
	 width="565px" height="526px" viewBox="22.5 61.5 565 526" enable-background="new 22.5 61.5 565 526" xml:space="preserve">
<g>
	<path d="M554.16,197.1H205.711L176.66,86.732c-3.103-12.02-13.948-18.152-26.359-18.152H45.239
		c-10.025,0-16.39,3.892-14.211,13.666l4.229,21.353c2.167,9.786,12.05,20.062,22.081,20.062h71.892l88.324,318.295
		c3.097,12.025,13.941,18.305,26.353,18.305H492.82c10.023,0,19.186-7.833,22.479-24.076l64.584-205.179
		C585.721,211.831,574.203,197.1,554.16,197.1z M466.448,405.18H265.583l-45.417-153H516.57L466.448,405.18z"/>
	<circle cx="232.719" cy="538.266" r="42.332"/>
	<circle cx="504.869" cy="538.266" r="42.332"/>
</g>
</svg>
